<mxfile host="app.diagrams.net" agent="Mozilla/5.0 (Windows NT 10.0; Win64; x64) AppleWebKit/537.36 (KHTML, like Gecko) Chrome/134.0.0.0 Safari/537.36" version="26.0.11">
  <diagram name="Page-1" id="o3ImUOY9m_5DSqHTd8sF">
    <mxGraphModel dx="594" dy="1659" grid="1" gridSize="10" guides="1" tooltips="1" connect="1" arrows="1" fold="1" page="1" pageScale="1" pageWidth="850" pageHeight="1100" math="0" shadow="0">
      <root>
        <mxCell id="0" />
        <mxCell id="1" parent="0" />
        <mxCell id="NhPnBpTk5NRDEetyriTT-3" style="edgeStyle=orthogonalEdgeStyle;rounded=0;orthogonalLoop=1;jettySize=auto;html=1;" edge="1" parent="1" source="NhPnBpTk5NRDEetyriTT-1" target="NhPnBpTk5NRDEetyriTT-2">
          <mxGeometry relative="1" as="geometry" />
        </mxCell>
        <mxCell id="NhPnBpTk5NRDEetyriTT-4" value="Run the VSCode Nodify command" style="edgeLabel;html=1;align=center;verticalAlign=middle;resizable=0;points=[];" vertex="1" connectable="0" parent="NhPnBpTk5NRDEetyriTT-3">
          <mxGeometry y="-3" relative="1" as="geometry">
            <mxPoint as="offset" />
          </mxGeometry>
        </mxCell>
        <mxCell id="NhPnBpTk5NRDEetyriTT-1" value="Open a Python/TypeScript project in VSCode" style="rounded=1;whiteSpace=wrap;html=1;" vertex="1" parent="1">
          <mxGeometry x="160" y="480" width="120" height="60" as="geometry" />
        </mxCell>
        <mxCell id="NhPnBpTk5NRDEetyriTT-8" style="edgeStyle=orthogonalEdgeStyle;rounded=0;orthogonalLoop=1;jettySize=auto;html=1;" edge="1" parent="1" source="NhPnBpTk5NRDEetyriTT-2" target="NhPnBpTk5NRDEetyriTT-5">
          <mxGeometry relative="1" as="geometry" />
        </mxCell>
        <mxCell id="NhPnBpTk5NRDEetyriTT-2" value="Parse the raw file (and all related files) into a Nodify-focused AST" style="rounded=1;whiteSpace=wrap;html=1;" vertex="1" parent="1">
          <mxGeometry x="160" y="600" width="120" height="60" as="geometry" />
        </mxCell>
        <mxCell id="NhPnBpTk5NRDEetyriTT-9" style="edgeStyle=orthogonalEdgeStyle;rounded=0;orthogonalLoop=1;jettySize=auto;html=1;" edge="1" parent="1" source="NhPnBpTk5NRDEetyriTT-5" target="NhPnBpTk5NRDEetyriTT-6">
          <mxGeometry relative="1" as="geometry" />
        </mxCell>
        <mxCell id="NhPnBpTk5NRDEetyriTT-5" value="Partition the code into separate blocks" style="rounded=1;whiteSpace=wrap;html=1;" vertex="1" parent="1">
          <mxGeometry x="160" y="720" width="120" height="60" as="geometry" />
        </mxCell>
        <mxCell id="NhPnBpTk5NRDEetyriTT-10" style="edgeStyle=orthogonalEdgeStyle;rounded=0;orthogonalLoop=1;jettySize=auto;html=1;" edge="1" parent="1" source="NhPnBpTk5NRDEetyriTT-6" target="NhPnBpTk5NRDEetyriTT-7">
          <mxGeometry relative="1" as="geometry" />
        </mxCell>
        <mxCell id="NhPnBpTk5NRDEetyriTT-6" value="Generate summaries for each code block" style="rounded=1;whiteSpace=wrap;html=1;" vertex="1" parent="1">
          <mxGeometry x="160" y="840" width="120" height="60" as="geometry" />
        </mxCell>
        <mxCell id="NhPnBpTk5NRDEetyriTT-7" value="Generate the Nodify Webview graph" style="rounded=1;whiteSpace=wrap;html=1;" vertex="1" parent="1">
          <mxGeometry x="160" y="960" width="120" height="60" as="geometry" />
        </mxCell>
      </root>
    </mxGraphModel>
  </diagram>
</mxfile>
